HIERARCHY
ROOT Hips
{
  OFFSET 0 0.46367 0.080341
  CHANNELS 6 Xposition Yposition Zposition Zrotation Yrotation Xrotation
  JOINT LHipJoint
  {
    OFFSET 0 0 0
    CHANNELS 3 Zrotation Yrotation Xrotation
    JOINT LeftUpLeg
    {
      OFFSET 0.949434 -0.248378 0.086503
      CHANNELS 3 Zrotation Yrotation Xrotation
      JOINT LeftLeg
      {
        OFFSET -0.076513 -3.87942 -0.177038
        CHANNELS 3 Zrotation Yrotation Xrotation
        JOINT LeftFoot
        {
          OFFSET -0.188964 -3.68097 -0.122632
          CHANNELS 3 Zrotation Yrotation Xrotation
          JOINT LeftToeBase
          {
            OFFSET 0.055451 -0.52448 1.12038
            CHANNELS 3 Zrotation Yrotation Xrotation
            End Site
            {
              OFFSET 0.007944 -0.006006 0.13966
            }
          }
        }
      }
    }
  }
  JOINT RHipJoint
  {
    OFFSET 0 0 0
    CHANNELS 3 Zrotation Yrotation Xrotation
    JOINT RightUpLeg
    {
      OFFSET -0.949434 -0.248378 0.086503
      CHANNELS 3 Zrotation Yrotation Xrotation
      JOINT RightLeg
      {
        OFFSET 0.076513 -3.87942 -0.177038
        CHANNELS 3 Zrotation Yrotation Xrotation
        JOINT RightFoot
        {
          OFFSET 0.188964 -3.68097 -0.122632
          CHANNELS 3 Zrotation Yrotation Xrotation
          JOINT RightToeBase
          {
            OFFSET -0.055451 -0.52448 1.12038
            CHANNELS 3 Zrotation Yrotation Xrotation
            End Site
            {
              OFFSET -0.007944 -0.006006 0.13966
            }
          }
        }
      }
    }
  }
  JOINT LowerBack
  {
    OFFSET 0 0 0
    CHANNELS 3 Zrotation Yrotation Xrotation
    JOINT Spine
    {
      OFFSET 0 0.677144 0.028277
      CHANNELS 3 Zrotation Yrotation Xrotation
      JOINT Spine1
      {
        OFFSET 0 2.15612 -0.508617
        CHANNELS 3 Zrotation Yrotation Xrotation
        JOINT Neck
        {
          OFFSET 0 0 0
          CHANNELS 3 Zrotation Yrotation Xrotation
          JOINT Neck1
          {
            OFFSET 0 1.78187 0.216275
            CHANNELS 3 Zrotation Yrotation Xrotation
            JOINT Head
            {
              OFFSET 0 1.01591 -0.026879
              CHANNELS 3 Zrotation Yrotation Xrotation
              End Site
              {
                OFFSET 0 0.339197 0.983632
              }
            }
          }
        }
        JOINT LeftShoulder
        {
          OFFSET 0 0 0
          CHANNELS 3 Zrotation Yrotation Xrotation
          JOINT LeftArm
          {
            OFFSET 1.56587 1.18474 0.289545
            CHANNELS 3 Zrotation Yrotation Xrotation
            JOINT LeftForeArm
            {
              OFFSET 1.93094 -0.176441 -0.109244
              CHANNELS 3 Zrotation Yrotation Xrotation
              JOINT LeftHand
              {
                OFFSET 2.26341 -0.058986 0.122483
                CHANNELS 3 Zrotation Yrotation Xrotation
                JOINT LeftFingerBase
                {
                  OFFSET 0 0 0
                  CHANNELS 3 Zrotation Yrotation Xrotation
                  JOINT LeftHandIndex1
                  {
                    OFFSET 0.944218 0.017559 0.358417
                    CHANNELS 3 Zrotation Yrotation Xrotation
                    End Site
                    {
                      OFFSET 0.237801 -0.022714 0.035813
                    }
                  }
                }
                JOINT LThumb
                {
                  OFFSET 0 0 0
                  CHANNELS 3 Zrotation Yrotation Xrotation
                  End Site
                  {
                    OFFSET 0.23493 -0.092931 0.244282
                  }
                }
              }
            }
          }
        }
        JOINT RightShoulder
        {
          OFFSET 0 0 0
          CHANNELS 3 Zrotation Yrotation Xrotation
          JOINT RightArm
          {
            OFFSET -1.56587 1.18474 0.289545
            CHANNELS 3 Zrotation Yrotation Xrotation
            JOINT RightForeArm
            {
              OFFSET -1.93094 -0.176441 -0.109244
              CHANNELS 3 Zrotation Yrotation Xrotation
              JOINT RightHand
              {
                OFFSET -2.26341 -0.058986 0.122483
                CHANNELS 3 Zrotation Yrotation Xrotation
                JOINT RightFingerBase
                {
                  OFFSET 0 0 0
                  CHANNELS 3 Zrotation Yrotation Xrotation
                  JOINT RightHandIndex1
                  {
                    OFFSET -0.944218 0.017559 0.358417
                    CHANNELS 3 Zrotation Yrotation Xrotation
                    End Site
                    {
                      OFFSET -0.237801 -0.022714 0.035813
                    }
                  }
                }
                JOINT RThumb
                {
                  OFFSET 0 0 0
                  CHANNELS 3 Zrotation Yrotation Xrotation
                  End Site
                  {
                    OFFSET -0.23493 -0.092931 0.244282
                  }
                }
              }
            }
          }
        }
      }
    }
  }
}
MOTION
Frames: 8
Frame Time: 0.0083333
5.12791 9.47595 2.35454 0 0 0 0 0 0 0 0 0 0 0 0 0 0 0 0 0 0 0 0 0 0 0 0 0 0 0 0 0 0 0 0 0 0 0 0 0 0 0 0 0 0 0 0 0 0 0 0 0 0 0 0 0 0 0 0 0 0 0 0 0 0 0 0 0 0 0 0 0 0 0 0 0 0 0 0 0 0 0 0 0 0 0 0 0 0 0 0 0 0 0 0 0 
5.12791 9.47595 2.35454 -179.584 7.005 177.69 0 0 0 3.3181 -15.1698 3.7576 1.3013 7.227 20.3896 0.0719 18.2653 -26.4542 0.5893 -4.9151 -13.6666 0 0 0 0.4499 15.7738 3.4618 -1.3546 -7.3676 20.809 -0.6056 -21.9608 -34.7046 -1.4482 7.6072 -21.5271 0.2014 1.9791 7.6951 -1.1436 2.833 2.8557 -1.5358 1.5075 -1.2925 11.6857 6.2619 10.0826 -8.7166 8.0522 -15.0194 -4.1096 3.9383 -7.4274 0 0 0 -77.285 2.4847 23.7639 13.1488 -21.5049 -2.5076 -0 -0 1.7071 18.2526 6.2 2.0399 -7.125 0 -0 -7.1419 36.4254 1.5154 0 0 0 78.4538 -6.3653 28.6898 -18.1538 28.3537 -4.6221 0 -0 -16.1947 -17.5459 4.7834 -1.5103 7.125 -0 -0 6.8294 -24.9626 3.3317 
5.12712 9.47337 2.35503 -179.476 6.9679 177.724 0 0 0 3.4402 -15.2577 3.6061 1.3326 7.3099 20.6367 0.0989 18.1836 -26.563 0.584 -4.8931 -13.6038 0 0 0 0.540501 15.5878 3.4437 -1.3375 -7.3228 20.6753 -0.4808 -22.2525 -34.3398 -1.5856 7.9436 -22.5429 0.1317 1.847 7.6589 -0.9445 2.6538 2.8926 -1.2744 1.4162 -1.2521 10.9872 6.4029 10.2018 -8.2931 8.2622 -15.323 -3.8602 4.0426 -7.5641 0 -0 0 -77.7091 2.4975 22.9305 13.1799 -21.5502 -2.519 -0 -0 2.1207 18.2487 6.0292 1.9835 -7.125 0 -0 -7.1238 36.247 1.5428 0 -0 0 78.0867 -6.2993 29.1694 -18.1168 28.3064 -4.6045 0 -0 -15.9393 -17.2487 4.8566 -1.5057 7.125 -0 -0 7.0487 -24.8944 3.4515 
5.12699 9.47276 2.35577 -179.451 6.9411 177.75 0 0 0 3.455 -15.3437 3.6362 1.3256 7.2913 20.5814 0.0686 18.3146 -26.4941 0.5972 -4.9473 -13.7583 0 0 0 0.5214 15.347 3.2484 -1.3518 -7.3601 20.7867 -0.3929 -22.363 -33.9636 -1.7111 8.2363 -23.4343 0.0623 1.8035 7.6608 -0.8882 2.5906 2.8905 -1.1725 1.3835 -1.2623 10.8873 6.4895 10.2034 -8.2281 8.3801 -15.3575 -3.8166 4.1007 -7.5703 0 -0 0 -77.8462 2.5348 22.521 13.2168 -21.604 -2.5325 -0 -0 2.3239 18.1972 6.1015 2.0011 -7.125 0 -0 -7.1757 36.3195 1.5414 0 -0 0 78.1289 -6.3153 29.0059 -18.0824 28.2625 -4.5882 0 -0 -15.3883 -16.7937 4.9535 -1.4927 7.125 -0 -0 7.3844 -24.8062 3.6337 
5.12767 9.47528 2.35577 -179.527 6.9449 177.758 0 0 0 3.3918 -15.28 3.5922 1.3262 7.2931 20.5866 0.0581 18.3276 -26.427 0.6269 -5.0665 -14.0983 0 0 0 0.395399 15.2014 3.1291 -1.3587 -7.3782 20.8409 -0.4188 -22.1811 -33.8902 -1.6944 8.1983 -23.318 -0.0024 1.8449 7.6595 -0.9726 2.6421 2.8962 -1.2272 1.4105 -1.2534 11.0008 6.4654 10.2151 -8.1271 8.322 -15.4607 -3.8091 4.0765 -7.6085 -0 0 0 -77.6721 2.603 22.762 13.2886 -21.7086 -2.5591 -0 -0 1.98 18.2683 6.1049 2.0106 -7.125 0 -0 -7.1168 36.3271 1.5272 -0 0 0 78.2776 -6.4292 29.0896 -18.2628 28.4923 -4.6739 0 -0 -15.3851 -16.5677 4.7215 -1.4028 7.125 -0 -0 7.5634 -25.0518 3.6797 
5.12791 9.47558 2.35601 -179.539 6.9262 177.769 0 0 0 3.3931 -15.2519 3.5811 1.3209 7.2789 20.5444 0.0442 18.3454 -26.3372 0.6415 -5.1241 -14.263 0 0 0 0.3531 15.1017 3.0184 -1.3704 -7.4086 20.9317 -0.4522 -22.0332 -33.9041 -1.6705 8.1432 -23.1499 -0.0517 1.8353 7.6634 -0.9835 2.6272 2.9076 -1.2094 1.4035 -1.2458 10.8031 6.4779 10.2816 -7.8131 8.3237 -15.6679 -3.6862 4.0833 -7.7035 0 -0 0 -77.6632 2.6641 22.6773 13.345 -21.7906 -2.58 -0 -0 1.8965 18.3896 6.0778 2.016 -7.125 0 -0 -7.0122 36.3054 1.5082 0 -0 0 78.3352 -6.5224 29.2017 -18.4268 28.7002 -4.7524 0 -0 -15.2296 -16.3827 4.5223 -1.3279 7.125 -0 -0 7.7112 -25.262 3.7149 
5.12828 9.47577 2.3562 -179.552 6.9014 177.774 0 0 0 3.3978 -15.2115 3.5586 1.3176 7.2702 20.5184 0.0334 18.3385 -26.2391 0.653 -5.1688 -14.3908 0 0 0 0.3179 15.031 2.9414 -1.3792 -7.4314 21 -0.5027 -21.8604 -33.9898 -1.6204 8.0262 -22.7936 -0.0845 1.832 7.6743 -1.0091 2.6221 2.9202 -1.2171 1.4018 -1.2391 10.5738 6.47 10.3687 -7.4309 8.2963 -15.9235 -3.5413 4.0774 -7.8234 0 -0 0 -77.6319 2.7332 22.6372 13.3972 -21.8664 -2.5993 -0 -0 1.7983 18.5645 6.0609 2.0309 -7.125 0 -0 -6.8641 36.2973 1.4774 0 -0 0 78.42 -6.6588 29.315 -18.6775 29.016 -4.8734 0 -0 -15.1133 -16.265 4.2726 -1.2452 7.125 -0 -0 7.812 -25.5222 3.7165 
5.12859 9.47534 2.35613 -179.555 6.8639 177.778 0 0 0 3.4152 -15.1761 3.4936 1.3236 7.2862 20.566 0.0311 18.2946 -26.1604 0.662 -5.2038 -14.4906 0 0 0 0.2995 14.9818 2.9121 -1.3811 -7.4364 21.0148 -0.5477 -21.7251 -34.0896 -1.5694 7.9049 -22.4255 -0.1087 1.8227 7.6871 -1.0269 2.6098 2.936 -1.2209 1.3967 -1.2303 10.3022 6.4571 10.4675 -7.0175 8.2656 -16.2132 -3.3821 4.0698 -7.9585 -0 0 0 -77.6265 2.8035 22.5664 13.4375 -21.9248 -2.6144 -0 -0 1.745 18.7525 6.0364 2.0447 -7.125 0 -0 -6.7041 36.2822 1.445 -0 0 0 78.4773 -6.8333 29.4826 -19.0153 29.4376 -5.0383 0 -0 -15.0617 -16.1963 4.0273 -1.1686 7.125 -0 -0 7.8764 -25.7766 3.7005 
